<?xml version="1.0" encoding="UTF-8"?>
<svg version="1.1" xmlns="http://www.w3.org/2000/svg" width="512" height="512">
<path d="M0 0 C126.72 0 253.44 0 384 0 C384 10.56 384 21.12 384 32 C394.56 32 405.12 32 416 32 C416 42.56 416 53.12 416 64 C426.56 64 437.12 64 448 64 C448 190.72 448 317.44 448 448 C437.44 448 426.88 448 416 448 C416 458.56 416 469.12 416 480 C405.44 480 394.88 480 384 480 C384 490.56 384 501.12 384 512 C257.28 512 130.56 512 0 512 C0 501.44 0 490.88 0 480 C-10.56 480 -21.12 480 -32 480 C-32 469.44 -32 458.88 -32 448 C-42.56 448 -53.12 448 -64 448 C-64 321.28 -64 194.56 -64 64 C-53.44 64 -42.88 64 -32 64 C-32 53.44 -32 42.88 -32 32 C-21.44 32 -10.88 32 0 32 C0 21.44 0 10.88 0 0 Z " fill="#0078B5" transform="translate(64,0)"/>
<path d="M0 0 C21.12 0 42.24 0 64 0 C64 10.56 64 21.12 64 32 C74.56 32 85.12 32 96 32 C96 21.44 96 10.88 96 0 C117.12 0 138.24 0 160 0 C160 10.56 160 21.12 160 32 C170.56 32 181.12 32 192 32 C192 95.36 192 158.72 192 224 C170.88 224 149.76 224 128 224 C128 171.2 128 118.4 128 64 C106.88 64 85.76 64 64 64 C64 116.8 64 169.6 64 224 C42.88 224 21.76 224 0 224 C0 150.08 0 76.16 0 0 Z " fill="#FFFFFF" transform="translate(224,192)"/>
<path d="M0 0 C21.12 0 42.24 0 64 0 C64 73.92 64 147.84 64 224 C42.88 224 21.76 224 0 224 C0 150.08 0 76.16 0 0 Z " fill="#FFFFFF" transform="translate(96,192)"/>
<path d="M0 0 C126.72 0 253.44 0 384 0 C384 10.56 384 21.12 384 32 C257.28 32 130.56 32 0 32 C0 21.44 0 10.88 0 0 Z " fill="#00669A" transform="translate(64,480)"/>
<path d="M0 0 C10.56 0 21.12 0 32 0 C32 126.72 32 253.44 32 384 C21.44 384 10.88 384 0 384 C0 257.28 0 130.56 0 0 Z " fill="#00669A" transform="translate(480,64)"/>
<path d="M0 0 C10.56 0 21.12 0 32 0 C32 126.72 32 253.44 32 384 C21.44 384 10.88 384 0 384 C0 257.28 0 130.56 0 0 Z " fill="#278CC0" transform="translate(0,64)"/>
<path d="M0 0 C126.72 0 253.44 0 384 0 C384 10.56 384 21.12 384 32 C257.28 32 130.56 32 0 32 C0 21.44 0 10.88 0 0 Z " fill="#278CC0" transform="translate(64,0)"/>
<path d="M0 0 C21.12 0 42.24 0 64 0 C64 21.12 64 42.24 64 64 C42.88 64 21.76 64 0 64 C0 42.88 0 21.76 0 0 Z " fill="#FFFFFF" transform="translate(96,96)"/>
<path d="M0 0 C10.56 0 21.12 0 32 0 C32 10.56 32 21.12 32 32 C21.44 32 10.88 32 0 32 C0 21.44 0 10.88 0 0 Z " fill="#00669A" transform="translate(448,448)"/>
<path d="M0 0 C10.56 0 21.12 0 32 0 C32 10.56 32 21.12 32 32 C21.44 32 10.88 32 0 32 C0 21.44 0 10.88 0 0 Z " fill="#278CC0" transform="translate(32,32)"/>
</svg>
